PathFileType	3	(X/Y/Z)	F:\ViconData\AntennenMessung\Messung1\Session1\ID03.trc
DataRate	CameraRate	NumFrames	NumMarkers	Units	OrigDataRate	OrigDataStartFrame	OrigNumFrames
120.0	120.0	4	70	mm	120.0	436	1160	
Frame#	Time	Ashort			Along			Atop			A4			Bshort			Blong			Btop			B4			Cshort			Clong			Ctop			C4			Dshort			Dlong			Dtop			D4			Eshort			Elong			Etop			E4			Fshort			Flong			Ftop			F4			Gshort			Glong			Gtop			G4			Hshort			Hlong			Htop			H4			I1			I2			I3			I4			I5			WandAshort			WandAlong			WandAtop			WandA4			WandA15			WandBshort			WandB4			WandB5			WandBtop			WandBlong			WandCshort			WandClong			WandCtop			WandC4			WandC5			Acenter			Aantenna			Bcenter			Bantenna			Ccenter			Cantenna			Dcenter			Dantenna			Ecenter			Eantenna			Fcenter			Fantenna			Gcenter			Gantenna			Hcenter			Hantenna			Icenter			Iantenna			
		X1	Y1	Z1	X2	Y2	Z2	X3	Y3	Z3	X4	Y4	Z4	X5	Y5	Z5	X6	Y6	Z6	X7	Y7	Z7	X8	Y8	Z8	X9	Y9	Z9	X10	Y10	Z10	X11	Y11	Z11	X12	Y12	Z12	X13	Y13	Z13	X14	Y14	Z14	X15	Y15	Z15	X16	Y16	Z16	X17	Y17	Z17	X18	Y18	Z18	X19	Y19	Z19	X20	Y20	Z20	X21	Y21	Z21	X22	Y22	Z22	X23	Y23	Z23	X24	Y24	Z24	X25	Y25	Z25	X26	Y26	Z26	X27	Y27	Z27	X28	Y28	Z28	X29	Y29	Z29	X30	Y30	Z30	X31	Y31	Z31	X32	Y32	Z32	X33	Y33	Z33	X34	Y34	Z34	X35	Y35	Z35	X36	Y36	Z36	X37	Y37	Z37	X38	Y38	Z38	X39	Y39	Z39	X40	Y40	Z40	X41	Y41	Z41	X42	Y42	Z42	X43	Y43	Z43	X44	Y44	Z44	X45	Y45	Z45	X46	Y46	Z46	X47	Y47	Z47	X48	Y48	Z48	X49	Y49	Z49	X50	Y50	Z50	X51	Y51	Z51	X52	Y52	Z52	X53	Y53	Z53	X54	Y54	Z54	X55	Y55	Z55	X56	Y56	Z56	X57	Y57	Z57	X58	Y58	Z58	X59	Y59	Z59	X60	Y60	Z60	X61	Y61	Z61	X62	Y62	Z62	X63	Y63	Z63	X64	Y64	Z64	X65	Y65	Z65	X66	Y66	Z66	X67	Y67	Z67	X68	Y68	Z68	X69	Y69	Z69	X70	Y70	Z70	
436	3.625	-1038.3381	214.62846	-1644.1896	-1109.2961	203.43753	-1599.5487	-1063.6188	172.49834	-1625.5154	-1054.183	262.09189	-1634.97	-1352.8335	235.25781	1003.8771	-1281.3107	227.1783	1052.2006	-1323.1356	194.15913	1020.8396	-1284.7301	287.77499	1052.8374	813.8313	187.66278	1209.4581	892.31171	178.33253	1179.2866	844.30396	145.5296	1198.1681	860.47473	292.55164	1167.1771	1115.7438	209.43422	-1401.5706	1056.2478	194.07666	-1460.2118	1095.0161	162.18243	-1423.8677	1069.9043	238.62592	-1425.8953	-1204.479	1685.9414	-1563.33	-1129.1261	1688.3369	-1606.6088	-1173.1073	1724.3765	-1581.9717	-1133.5432	1581.0334	-1603.4989	-1239.7412	1699.2611	1119.2941	-1309.5321	1699.0088	1071.875	-1270.3933	1736.1913	1096.6914	-1244.6107	1594.2942	1106.4427	988.82062	1664.219	1162.2281	955.9386	1702.1979	1181.1748	922.11511	1662.2516	1214.8291	939.80402	1659.277	1159.8334	999.22137	1668.5697	-1579.4996	1058.7306	1669.9617	-1518.6703	1025.0663	1708.0052	-1551.1451	1059.2892	1672.1702	-1585.598	-552.46558	1664.1604	-294.5015	-557.29218	1664.9954	-210.18642	-555.27826	1701.3953	-257.15469	-586.72101	1662.5188	-259.67374	-507.26907	1666.613	-254.59639																																														-1069.0797	209.78014	-1624.8495	-1074.7311	248.36235	-1624.1605	-1321.6603	231.73636	1024.939	-1320.1394	270.47684	1029.1652	848.10358	183.58826	1196.2821	851.97321	222.34825	1194.3616	1088.8062	202.48088	-1428.121	1082.8984	240.81789	-1432.1672	-1171.9438	1686.9757	-1582.0162	-1170.7314	1647.9946	-1582.0629	-1271.1273	1699.1476	1097.9688	-1271.8995	1660.1785	1099.3125	953.28406	1705.2638	1182.7042	972.86609	1732.2863	1162.5217	1026.4779	1669.2073	-1551.6383	1027.8959	1630.2362	-1552.1338	-554.62646	1664.5341	-256.75235	-553.93701	1625.5425	-256.32675
437	3.6333333	-1038.3098	214.6657	-1644.1989	-1109.3109	203.42162	-1599.5558	-1063.6276	172.57051	-1625.5908	-1054.1927	262.06442	-1634.9333	-1353.0248	235.32976	1003.9044	-1281.3419	227.06721	1052.3545	-1323.0829	194.15065	1020.7908	-1284.7244	287.81137	1052.8202	813.85022	187.65179	1209.4758	892.22479	178.48698	1179.2074	844.25067	145.61082	1198.1635	860.42407	292.29269	1167.3331	1115.7568	209.442	-1401.5829	1056.2388	194.09303	-1460.2211	1094.9584	162.11491	-1423.8989	1069.8945	238.64058	-1425.9338	-1204.4502	1685.9414	-1563.3352	-1129.1111	1688.1946	-1606.0704	-1173.1354	1724.3137	-1581.9041	-1133.5281	1581.0491	-1603.5199	-1239.7852	1699.3372	1119.3123	-1309.5001	1698.9211	1071.8369	-1270.373	1736.1677	1096.6746	-1244.7683	1593.8656	1106.3801	988.85345	1664.2435	1162.2156	955.9079	1702.3696	1181.0652	922.05463	1662.2096	1214.7552	939.79437	1659.3063	1159.8868	999.1994	1668.6044	-1579.535	1058.8768	1670.1508	-1518.6505	1025.0667	1708.0028	-1551.1426	1059.2915	1672.1829	-1585.6041	-552.56116	1664.1194	-294.48608	-557.28992	1664.9943	-210.19814	-555.27875	1701.3973	-257.1568	-586.70105	1662.5105	-259.67438	-507.25781	1666.6053	-254.60121																																														-1069.0641	209.79527	-1624.8615	-1074.6992	248.37863	-1624.1057	-1321.6655	231.71513	1025.0997	-1320.2045	270.43384	1029.5413	847.97858	183.66095	1196.2954	851.77692	222.42886	1194.3921	1088.7634	202.48073	-1428.1771	1082.8795	240.81961	-1432.2405	-1171.9434	1686.9136	-1581.7743	-1170.7008	1647.9336	-1581.639	-1271.063	1699.1504	1098.0122	-1271.7894	1660.1826	1099.4204	953.41248	1705.2573	1182.4928	973.05273	1732.2192	1162.2861	1026.5586	1669.3132	-1551.6223	1028.0615	1630.3451	-1552.1057	-554.67871	1664.5111	-256.74023	-554.04462	1625.5187	-256.29996
438	3.6416667	-1038.2811	214.51137	-1644.2075	-1109.2916	203.4335	-1599.5393	-1063.5674	173.04582	-1625.7815	-1054.197	262.06796	-1634.9713	-1353.0387	234.93817	1003.9044	-1281.3608	227.02243	1052.4003	-1323.0638	194.13309	1020.8249	-1284.7095	287.79974	1052.7789	813.82898	187.68279	1209.4958	892.39124	178.37863	1179.192	844.59241	145.15439	1198.3209	860.47809	292.41876	1167.2968	1115.8022	209.74539	-1401.7089	1056.2416	194.0937	-1460.2203	1095.0054	162.13582	-1423.8899	1069.8912	238.60939	-1425.9382	-1204.4822	1685.9425	-1563.3313	-1129.1034	1688.1819	-1606.0593	-1173.1472	1724.3243	-1581.9004	-1133.528	1581.0256	-1603.4745	-1239.761	1699.2748	1119.2899	-1309.4519	1698.8502	1071.8014	-1270.3966	1736.1904	1096.6871	-1244.667	1594.3037	1106.7241	988.88586	1664.2574	1162.2338	955.77887	1702.2915	1181.0853	922.52399	1661.9963	1214.7671	939.81439	1659.3301	1159.8387	999.20508	1668.5625	-1579.5013	1058.7555	1669.9873	-1518.682	1025.0619	1708.0039	-1551.139	1059.286	1672.0973	-1585.4431	-552.56873	1664.1226	-294.48865	-557.51685	1665.225	-210.00299	-555.27716	1701.3917	-257.15585	-586.69965	1662.506	-259.68192	-507.25812	1666.6262	-254.58893																																														-1068.8057	209.74942	-1625.0063	-1074.3146	248.34978	-1624.191	-1321.7933	231.48759	1025.0442	-1320.4761	270.21902	1029.4192	848.32343	183.5976	1196.1903	852.08508	222.35629	1194.0424	1088.7155	202.62735	-1428.3184	1082.7635	240.94203	-1432.5089	-1171.9596	1686.9086	-1581.7664	-1170.7227	1647.9285	-1581.627	-1271.0459	1699.0841	1097.9718	-1271.728	1660.1134	1099.3212	953.45593	1704.9601	1182.4081	972.8985	1731.9653	1162.0685	1026.493	1669.2153	-1551.6318	1027.9312	1630.245	-1552.1268	-554.78503	1664.6163	-256.64716	-554.26318	1625.6235	-256.10782
439	3.65	-1038.2758	214.49979	-1644.2222	-1109.3134	203.45723	-1599.5293	-1063.5565	173.06148	-1625.8081	-1054.2	262.06638	-1634.9509	-1353.0254	235.33534	1003.9471	-1281.318	227.08098	1052.3336	-1323.0977	194.1234	1020.8186	-1284.7021	287.80875	1052.8228	813.88281	187.60704	1209.4396	892.18066	178.39911	1179.2473	844.57587	145.14569	1198.3281	860.43695	292.29834	1167.4033	1115.7537	209.45555	-1401.5795	1056.2676	194.11955	-1460.2302	1095.035	162.23982	-1423.8988	1069.8997	238.63428	-1425.9561	-1204.4741	1685.9365	-1563.3206	-1129.1044	1688.2053	-1606.0654	-1173.1035	1724.3866	-1581.9751	-1133.5115	1580.9966	-1603.4471	-1239.7383	1699.2614	1119.2881	-1309.4395	1698.819	1071.79	-1270.4094	1736.2271	1096.6949	-1244.6461	1594.0155	1106.4441	988.84473	1664.1938	1162.248	955.71783	1702.326	1181.0519	922.6662	1662.0316	1214.7749	939.79474	1659.2848	1159.8639	999.21747	1668.5583	-1579.5063	1058.8944	1670.1681	-1518.6543	1025.0621	1707.9982	-1551.1362	1059.2756	1672.1354	-1585.5522	-552.47687	1664.1622	-294.49197	-557.52277	1665.2169	-210.0247	-555.27924	1701.411	-257.15698	-586.69153	1662.5118	-259.68314	-507.26968	1666.6132	-254.59621																																														-1068.774	209.7589	-1625.0341	-1074.2627	248.36217	-1624.2201	-1321.6642	231.7253	1025.1088	-1320.1881	270.44614	1029.5269	848.26593	183.56354	1196.181	851.98895	222.32494	1194.0148	1088.8243	202.513	-1428.1304	1082.9122	240.85121	-1432.1587	-1171.8796	1686.9176	-1581.8058	-1170.6066	1647.9388	-1581.6299	-1271.0358	1699.0626	1097.9602	-1271.6926	1660.0907	1099.287	953.52252	1704.8529	1182.298	972.94092	1731.8011	1161.8596	1026.5819	1669.2964	-1551.6029	1028.1122	1630.3292	-1552.0729	-554.73657	1664.6345	-256.66537	-554.16119	1625.6422	-256.1442
